<svg width="24" height="24" viewBox="0 0 24 24" fill="none" xmlns="http://www.w3.org/2000/svg">
<g clip-path="url(#clip0_5_136)">
<path d="M13.5 4.875C13.5 3.839 14.339 3 15.375 3C16.411 3 17.25 3.839 17.25 4.875C17.25 5.911 16.411 6.75 15.375 6.75C14.339 6.75 13.5 5.911 13.5 4.875Z" stroke="black" stroke-opacity="0.5" stroke-width="1.5" stroke-linecap="round" stroke-linejoin="round"/>
<path d="M0.75 18.75L7.603 7.11902C7.738 6.89002 7.984 6.74902 8.25 6.74902C8.516 6.74902 8.762 6.89002 8.897 7.11902L15.75 18.75H0.75Z" stroke="black" stroke-opacity="0.5" stroke-width="1.5" stroke-linecap="round" stroke-linejoin="round"/>
<path d="M4.72 12H11.779" stroke="black" stroke-opacity="0.5" stroke-width="1.5" stroke-linecap="round" stroke-linejoin="round"/>
<path d="M13.745 15.348L16.844 10.117C16.979 9.89 17.225 9.75 17.489 9.75C17.754 9.75 17.999 9.89 18.134 10.117L23.25 18.75H15.75" stroke="black" stroke-opacity="0.5" stroke-width="1.5" stroke-linecap="round" stroke-linejoin="round"/>
</g>
<defs>
<clipPath id="clip0_5_136">
<rect width="24" height="24" fill="white"/>
</clipPath>
</defs>
</svg>
