<svg width="24" height="24" viewBox="0 0 24 24" fill="none" xmlns="http://www.w3.org/2000/svg">
<path d="M8.25 21.75H15.75" stroke="black" stroke-opacity="0.5" stroke-width="1.5" stroke-linecap="round" stroke-linejoin="round"/>
<path d="M7.37811 15.6563C5.57211 14.2453 4.51111 12.0853 4.50011 9.79225C4.47811 5.72725 7.75511 2.34425 11.8191 2.25025C15.0491 2.17225 17.9671 4.17125 19.0591 7.21225C20.1521 10.2533 19.1741 13.6523 16.6321 15.6473C16.0781 16.0773 15.7531 16.7373 15.7501 17.4383V18.0003C15.7501 18.4143 15.4141 18.7503 15.0001 18.7503H9.00011C8.58611 18.7503 8.25011 18.4143 8.25011 18.0003V17.4383C8.24911 16.7413 7.92811 16.0843 7.37811 15.6563Z" stroke="black" stroke-opacity="0.5" stroke-width="1.5" stroke-linecap="round" stroke-linejoin="round"/>
<path d="M12.75 5.25C14.625 5.566 16.182 7.125 16.5 9" stroke="black" stroke-opacity="0.5" stroke-width="1.5" stroke-linecap="round" stroke-linejoin="round"/>
</svg>
