<svg width="24" height="24" viewBox="0 0 24 24" fill="none" xmlns="http://www.w3.org/2000/svg">
<path d="M3 17.25C2.586 17.25 2.25 16.914 2.25 16.5V13.5C2.25 13.086 2.586 12.75 3 12.75H21C21.414 12.75 21.75 13.086 21.75 13.5V16.5C21.75 16.914 21.414 17.25 21 17.25H3Z" stroke="black" stroke-opacity="0.5" stroke-width="1.5" stroke-linecap="round" stroke-linejoin="round"/>
<path d="M8.25 17.25V12.75" stroke="black" stroke-opacity="0.5" stroke-width="1.5" stroke-linecap="round" stroke-linejoin="round"/>
<path d="M19.4998 9.75C19.4998 9.75 17.8128 9 19.4998 6C21.1878 3 19.4998 2.25 19.4998 2.25" stroke="black" stroke-opacity="0.5" stroke-width="1.5" stroke-linecap="round" stroke-linejoin="round"/>
<path d="M15.7502 9.75C15.7502 9.75 14.0622 9 15.7502 6C17.4382 3 15.7502 2.25 15.7502 2.25" stroke="black" stroke-opacity="0.5" stroke-width="1.5" stroke-linecap="round" stroke-linejoin="round"/>
</svg>
