<svg width="24" height="24" viewBox="0 0 24 24" fill="none" xmlns="http://www.w3.org/2000/svg">
<path d="M12 21.75V8.25" stroke="black" stroke-opacity="0.5" stroke-width="1.5" stroke-linecap="round" stroke-linejoin="round"/>
<path d="M12 14.25L7.5 12" stroke="black" stroke-opacity="0.5" stroke-width="1.5" stroke-linecap="round" stroke-linejoin="round"/>
<path d="M12 12L16.5 9.75" stroke="black" stroke-opacity="0.5" stroke-width="1.5" stroke-linecap="round" stroke-linejoin="round"/>
<path d="M12 16.6822C13.105 17.5682 14.489 18.0342 15.906 17.9942C19.087 17.9142 21.758 15.1612 21.75 11.9792C21.743 9.53619 20.255 7.34019 17.988 6.42919C17.069 3.91519 14.677 2.24219 12 2.24219C9.32302 2.24219 6.93102 3.91519 6.01202 6.42919C3.74402 7.34119 2.25502 9.53819 2.25002 11.9832C2.24202 15.1652 4.91402 17.9172 8.09502 17.9982C9.51202 18.0362 10.896 17.5702 12 16.6822Z" stroke="black" stroke-opacity="0.5" stroke-width="1.5" stroke-linecap="round" stroke-linejoin="round"/>
</svg>
