<svg width="20" height="20" viewBox="0 0 20 20" fill="none" xmlns="http://www.w3.org/2000/svg">
<path d="M8.4375 11.25H3.125C2.78 11.25 2.5 10.97 2.5 10.625V5.625C2.5 5.28 2.78 5 3.125 5H7.8125C8.1575 5 8.4375 5.28 8.4375 5.625V12.5C8.4375 14.2258 7.03833 15.625 5.3125 15.625" stroke="white" stroke-opacity="0.7" stroke-width="1.25" stroke-linecap="round" stroke-linejoin="round"/>
<path d="M17.5 11.25H12.1875C11.8425 11.25 11.5625 10.97 11.5625 10.625V5.625C11.5625 5.28 11.8425 5 12.1875 5H16.875C17.22 5 17.5 5.28 17.5 5.625V12.5C17.5 14.2258 16.1008 15.625 14.375 15.625" stroke="white" stroke-opacity="0.7" stroke-width="1.25" stroke-linecap="round" stroke-linejoin="round"/>
</svg>
