<svg width="16" height="16" viewBox="0 0 16 16" fill="none" xmlns="http://www.w3.org/2000/svg">
<path d="M10.2747 9.08347C10.4153 8.99014 10.5933 8.97414 10.7487 9.04081L13.696 10.3615C13.9 10.4481 14.0227 10.6595 13.996 10.8801C13.7953 12.3808 12.514 13.5008 11 13.5001C6.30533 13.5001 2.5 9.69414 2.5 5.00014C2.49867 3.48547 3.61933 2.20481 5.12 2.00347C5.34 1.97747 5.55133 2.09947 5.63867 2.30347L6.95933 5.25347C7.02533 5.40747 7.01 5.58414 6.918 5.72414L5.58267 7.31214C5.486 7.45814 5.47333 7.64347 5.54867 7.80081C6.06533 8.85881 7.15933 9.93947 8.22067 10.4515C8.37867 10.5261 8.56467 10.5121 8.71 10.4141L10.2747 9.08347Z" stroke="black" stroke-opacity="0.5" stroke-linecap="round" stroke-linejoin="round"/>
</svg>
