<svg width="24" height="24" viewBox="0 0 24 24" fill="none" xmlns="http://www.w3.org/2000/svg">
<path d="M4.5 18.75C4.086 18.75 3.75 18.414 3.75 18V14.25C3.75 13.836 4.086 13.5 4.5 13.5H19.5C19.914 13.5 20.25 13.836 20.25 14.25V18C20.25 18.414 19.914 18.75 19.5 18.75H4.5Z" stroke="black" stroke-opacity="0.5" stroke-width="1.5" stroke-linecap="round" stroke-linejoin="round"/>
<path d="M4.5 10.5C4.086 10.5 3.75 10.164 3.75 9.75V6C3.75 5.586 4.086 5.25 4.5 5.25H19.5C19.914 5.25 20.25 5.586 20.25 6V9.75C20.25 10.164 19.914 10.5 19.5 10.5H4.5Z" stroke="black" stroke-opacity="0.5" stroke-width="1.5" stroke-linecap="round" stroke-linejoin="round"/>
</svg>
