<svg width="24" height="24" viewBox="0 0 24 24" fill="none" xmlns="http://www.w3.org/2000/svg">
<path d="M4.5 7.5C4.5 5.843 5.843 4.5 7.5 4.5C9.157 4.5 10.5 5.843 10.5 7.5C10.5 9.157 9.157 10.5 7.5 10.5C5.843 10.5 4.5 9.157 4.5 7.5Z" stroke="black" stroke-opacity="0.5" stroke-width="1.5" stroke-linecap="round" stroke-linejoin="round"/>
<path d="M13.5 7.5C13.5 5.843 14.843 4.5 16.5 4.5C18.157 4.5 19.5 5.843 19.5 7.5C19.5 9.157 18.157 10.5 16.5 10.5C14.843 10.5 13.5 9.157 13.5 7.5Z" stroke="black" stroke-opacity="0.5" stroke-width="1.5" stroke-linecap="round" stroke-linejoin="round"/>
<path d="M4.5 16.5C4.5 14.843 5.843 13.5 7.5 13.5C9.157 13.5 10.5 14.843 10.5 16.5C10.5 18.157 9.157 19.5 7.5 19.5C5.843 19.5 4.5 18.157 4.5 16.5Z" stroke="black" stroke-opacity="0.5" stroke-width="1.5" stroke-linecap="round" stroke-linejoin="round"/>
<path d="M13.5 16.5C13.5 14.843 14.843 13.5 16.5 13.5C18.157 13.5 19.5 14.843 19.5 16.5C19.5 18.157 18.157 19.5 16.5 19.5C14.843 19.5 13.5 18.157 13.5 16.5Z" stroke="black" stroke-opacity="0.5" stroke-width="1.5" stroke-linecap="round" stroke-linejoin="round"/>
</svg>
