<svg width="39" height="32" viewBox="0 0 39 32" fill="none" xmlns="http://www.w3.org/2000/svg">
<path d="M29.763 32C34.883 31.895 39 27.686 39 22.511C39 19.994 38.006 17.581 36.237 15.801L20.527 0V9.822C20.527 11.464 21.175 13.04 22.33 14.202L26.01 17.902L26.02 17.912L32.191 24.119C32.391 24.321 32.391 24.648 32.191 24.849C32.1435 24.897 32.0869 24.935 32.0246 24.961C31.9623 24.987 31.8955 25.0003 31.828 25.0003C31.7605 25.0003 31.6937 24.987 31.6314 24.961C31.569 24.935 31.5125 24.897 31.465 24.849L29.338 22.709H9.662L7.535 24.849C7.48749 24.897 7.43095 24.935 7.36864 24.961C7.30634 24.987 7.2395 25.0003 7.172 25.0003C7.1045 25.0003 7.03766 24.987 6.97536 24.961C6.91305 24.935 6.85651 24.897 6.809 24.849C6.71264 24.752 6.65856 24.6208 6.65856 24.484C6.65856 24.3472 6.71264 24.216 6.809 24.119L12.979 17.913L12.989 17.903L16.67 14.2C17.8262 13.0356 18.4748 11.461 18.474 9.82V0L2.764 15.801C0.992598 17.5848 -0.00105861 19.9971 8.46342e-07 22.511C8.46342e-07 27.686 4.117 31.895 9.237 32H29.763Z" fill="black"/>
</svg>
