<svg width="24" height="24" viewBox="0 0 24 24" fill="none" xmlns="http://www.w3.org/2000/svg">
<g clip-path="url(#clip0_5_83)">
<path d="M1.5 10.5H22.5" stroke="black" stroke-opacity="0.5" stroke-width="1.5" stroke-linecap="round" stroke-linejoin="round"/>
<path d="M21 16.5V18.75C21 19.164 20.664 19.5 20.25 19.5H18C17.586 19.5 17.25 19.164 17.25 18.75V16.5" stroke="black" stroke-opacity="0.5" stroke-width="1.5" stroke-linecap="round" stroke-linejoin="round"/>
<path d="M6.75 16.5V18.75C6.75 19.164 6.414 19.5 6 19.5H3.75C3.336 19.5 3 19.164 3 18.75V16.5" stroke="black" stroke-opacity="0.5" stroke-width="1.5" stroke-linecap="round" stroke-linejoin="round"/>
<path d="M6 13.5H7.5" stroke="black" stroke-opacity="0.5" stroke-width="1.5" stroke-linecap="round" stroke-linejoin="round"/>
<path d="M16.5 13.5H18" stroke="black" stroke-opacity="0.5" stroke-width="1.5" stroke-linecap="round" stroke-linejoin="round"/>
<path d="M21 10.5L18.198 4.195C18.077 3.925 17.809 3.75 17.513 3.75H6.488C6.191 3.75 5.923 3.925 5.802 4.195L3 10.5V16.5H21V10.5Z" stroke="black" stroke-opacity="0.5" stroke-width="1.5" stroke-linecap="round" stroke-linejoin="round"/>
</g>
<defs>
<clipPath id="clip0_5_83">
<rect width="24" height="24" fill="white"/>
</clipPath>
</defs>
</svg>
