<svg width="24" height="24" viewBox="0 0 24 24" fill="none" xmlns="http://www.w3.org/2000/svg">
<path d="M16.875 10.125C16.875 12.817 14.692 15 12 15C9.308 15 7.125 12.817 7.125 10.125C7.125 6 12 3 12 3C12 3 16.875 6 16.875 10.125Z" stroke="black" stroke-opacity="0.5" stroke-width="1.5" stroke-linecap="round" stroke-linejoin="round"/>
<path d="M3.75 15.75L20.25 21" stroke="black" stroke-opacity="0.5" stroke-width="1.5" stroke-linecap="round" stroke-linejoin="round"/>
<path d="M20.25 15.75L3.75 21" stroke="black" stroke-opacity="0.5" stroke-width="1.5" stroke-linecap="round" stroke-linejoin="round"/>
<path d="M14.25 12.75C14.25 13.993 13.243 15 12 15C10.757 15 9.75 13.993 9.75 12.75C9.75 10.5 12 9 12 9C12 9 14.25 10.5 14.25 12.75Z" stroke="black" stroke-opacity="0.5" stroke-width="1.5" stroke-linecap="round" stroke-linejoin="round"/>
</svg>
